<?xml version="1.0" encoding="utf-8"?>
<!DOCTYPE svg PUBLIC "-//W3C//DTD SVG 20010904//EN" "http://www.w3.org/TR/2001/REC-SVG-20010904/DTD/svg10.dtd">
<svg version="1.0" xmlns="http://www.w3.org/2000/svg" width="632pt" height="453pt" viewBox="0 0 632 453" style="" preserveAspectRatio="xMidYMid meet">
<g fill="#808080" >
<path d="M 71.848 68.090 C 65.750 68.765 60.394 71.512 58.000 75.193 C 56.806 77.029 56.398 82.605 56.000 102.500 L 55.500 127.500 48.336 127.152 C 40.122 126.752 34.664 127.647 35.644 129.233 C 36.008 129.822 35.631 130.798 34.807 131.402 C 33.755 132.173 33.098 135.370 32.602 142.134 C 31.924 151.395 31.991 151.877 34.328 154.594 C 36.520 157.143 37.483 157.454 44.129 157.754 C 48.183 157.937 52.535 158.306 53.801 158.575 L 56.102 159.064 55.801 227.949 C 55.635 265.836 55.130 297.205 54.677 297.657 C 54.224 298.109 50.335 298.738 46.035 299.054 C 41.195 299.410 37.222 300.279 35.608 301.337 C 33.041 303.019 33.000 303.231 33.000 314.868 C 33.000 330.157 33.178 330.360 47.023 330.841 L 56.841 331.182 57.170 354.520 C 57.624 386.663 56.547 385.455 86.121 386.994 C 111.378 388.308 205.736 388.737 232.000 387.657 C 243.275 387.193 253.513 386.808 254.750 386.801 C 257.126 386.788 257.876 384.479 255.750 383.720 C 255.063 383.475 254.876 382.875 255.335 382.387 C 255.806 381.886 257.295 382.807 258.752 384.500 L 261.334 387.500 304.417 388.178 C 343.271 388.789 391.705 387.863 396.244 386.423 C 397.210 386.116 398.000 385.446 398.000 384.933 C 398.000 384.420 398.450 384.000 399.000 384.000 C 399.550 384.000 400.000 384.627 400.000 385.393 C 400.000 386.159 400.712 387.059 401.582 387.393 C 404.595 388.549 516.519 388.081 517.693 386.907 C 518.484 386.116 519.539 386.307 521.508 387.597 C 524.027 389.248 525.241 389.289 537.818 388.153 C 548.395 387.198 552.302 386.432 555.448 384.696 C 561.844 381.168 562.330 379.250 562.724 356.000 C 562.914 344.725 563.311 333.979 563.605 332.120 L 564.139 328.741 569.672 329.391 C 576.668 330.213 585.555 329.155 584.076 327.676 C 583.344 326.944 583.476 326.132 584.512 324.986 C 585.465 323.934 586.225 320.135 586.633 314.385 C 587.237 305.878 587.146 305.282 584.838 302.598 C 582.582 299.976 581.751 299.735 573.297 299.253 C 568.286 298.967 563.760 298.456 563.238 298.117 C 562.665 297.744 562.068 269.980 561.729 227.839 L 561.167 158.177 571.506 157.839 C 580.903 157.531 582.089 157.273 584.537 155.000 C 587.194 152.534 587.223 152.367 586.701 142.588 C 586.300 135.091 585.795 132.465 584.627 131.811 C 583.778 131.336 583.320 130.329 583.610 129.573 C 584.351 127.642 577.409 126.616 569.402 127.474 C 563.330 128.124 562.967 128.042 562.147 125.829 C 561.671 124.548 560.778 115.175 560.161 105.000 C 559.543 94.825 558.409 84.091 557.639 81.148 C 555.499 72.962 553.757 71.761 542.787 70.909 C 537.679 70.513 529.517 69.686 524.649 69.072 C 518.437 68.288 480.775 68.058 398.318 68.299 C 298.173 68.592 280.709 68.853 279.961 70.063 C 279.262 71.194 278.830 71.230 277.842 70.242 C 276.264 68.664 231.000 68.431 231.000 70.000 C 231.000 71.424 227.248 71.243 226.765 69.796 C 226.469 68.907 219.205 68.517 198.932 68.301 C 133.497 67.605 77.080 67.512 71.848 68.090 M 522.268 99.733 C 525.441 100.018 528.254 100.601 528.518 101.030 C 529.582 102.751 530.853 354.473 529.804 355.737 C 528.970 356.741 504.527 357.000 410.346 357.000 C 306.016 357.000 291.869 357.178 291.362 358.500 C 290.608 360.463 288.267 360.410 286.240 358.383 C 284.772 356.915 277.207 356.797 204.062 357.102 C 159.753 357.287 123.015 357.780 122.422 358.198 C 121.829 358.617 119.807 358.518 117.929 357.980 C 116.050 357.441 109.418 357.000 103.191 357.000 C 96.964 357.000 90.998 356.534 89.934 355.965 C 88.319 355.100 87.998 353.822 87.986 348.215 C 87.971 340.644 87.201 336.758 85.879 337.575 C 83.975 338.752 83.697 334.695 85.588 333.313 C 87.447 331.954 87.498 329.472 87.420 244.207 C 87.330 146.165 87.339 150.348 87.208 143.500 C 86.889 126.733 87.061 104.992 87.536 102.000 L 88.091 98.500 302.296 98.857 C 420.108 99.054 519.096 99.448 522.268 99.733 "/></g>
<g fill="#808080" >
<path d="M 130.000 130.838 L 124.500 131.500 124.231 154.226 C 123.995 174.211 124.146 176.881 125.481 176.369 C 127.373 175.643 127.575 179.025 125.750 180.848 C 124.894 181.703 124.342 187.363 123.998 198.798 C 123.585 212.532 123.185 215.939 121.748 217.973 C 120.335 219.971 120.000 222.594 120.000 231.646 C 120.000 242.798 120.013 242.859 123.050 245.896 C 125.698 248.545 125.946 249.232 124.934 251.124 C 124.120 252.644 123.727 263.463 123.634 286.901 L 123.500 320.500 125.818 323.750 L 128.136 327.000 141.134 327.000 C 148.283 327.000 155.002 326.534 156.066 325.965 C 157.457 325.220 158.631 325.290 160.250 326.215 C 161.840 327.123 167.486 327.500 179.500 327.500 C 191.514 327.500 197.160 327.123 198.750 326.215 L 201.000 324.930 201.000 231.076 C 201.000 125.634 201.621 133.838 193.500 131.992 C 188.532 130.862 137.501 129.935 130.000 130.838 M 170.767 182.750 C 170.995 204.278 171.253 208.000 172.517 208.000 C 173.580 208.000 174.000 209.132 174.000 212.000 C 174.000 214.889 173.583 216.000 172.500 216.000 C 171.191 216.000 171.000 221.278 171.000 257.500 C 171.000 290.002 170.729 299.013 169.750 299.058 C 169.063 299.090 165.238 299.295 161.250 299.514 L 154.000 299.911 153.798 257.706 C 153.687 234.493 153.742 214.150 153.919 212.500 C 154.097 210.850 154.146 198.163 154.028 184.306 C 153.909 170.450 154.117 158.619 154.490 158.016 C 154.914 157.331 158.047 157.028 162.834 157.209 L 170.500 157.500 170.767 182.750 "/></g>
<g fill="#808080" >
<path d="M 327.439 131.300 C 326.652 133.348 326.439 170.739 327.104 189.837 C 327.565 203.083 327.418 207.286 326.479 207.646 C 324.613 208.363 322.211 214.866 321.612 220.827 C 321.116 225.755 322.213 231.191 324.977 237.500 C 326.201 240.294 326.987 261.531 327.104 294.932 C 327.158 310.570 327.430 323.958 327.708 324.682 C 328.294 326.210 353.843 326.427 377.293 325.105 C 392.492 324.247 394.672 323.414 398.413 317.023 C 400.928 312.729 401.940 290.953 401.219 256.648 L 400.697 231.796 396.848 226.927 C 392.411 221.314 392.247 220.430 395.084 217.411 C 396.229 216.191 397.563 213.462 398.048 211.347 C 398.533 209.231 399.240 191.744 399.620 172.487 L 400.311 137.473 397.846 134.607 C 394.382 130.580 390.304 130.129 356.719 130.060 C 333.987 130.013 327.832 130.273 327.439 131.300 M 369.553 238.139 C 370.607 239.204 370.965 245.971 371.200 269.281 C 371.542 303.235 372.007 301.470 363.000 300.432 C 354.479 299.449 353.765 298.800 354.472 292.681 C 355.034 287.820 355.737 265.782 355.919 247.321 C 356.019 237.197 357.201 235.537 363.784 236.279 C 366.216 236.553 368.812 237.390 369.553 238.139 M 368.435 155.975 L 371.000 156.950 370.985 181.725 C 370.976 195.351 370.566 207.137 370.073 207.915 C 369.192 209.308 361.626 209.641 357.863 208.454 C 355.046 207.565 353.974 187.209 355.564 164.789 L 356.258 155.000 361.064 155.000 C 363.707 155.000 367.024 155.439 368.435 155.975 "/></g>
<g fill="#808080" >
<path d="M 238.914 131.734 C 233.865 132.056 232.925 132.501 229.140 136.357 C 225.124 140.449 224.909 140.989 223.888 149.562 C 223.199 155.343 223.080 167.859 223.551 185.000 C 223.952 199.575 224.183 235.125 224.065 264.000 L 223.851 316.500 226.175 319.908 C 231.379 327.536 231.057 327.463 260.932 327.821 C 291.082 328.183 292.681 327.907 297.577 321.488 C 300.265 317.964 300.463 317.002 301.246 303.632 C 302.077 289.446 301.370 220.336 300.332 214.250 L 299.777 211.000 283.364 211.000 L 266.950 211.000 265.975 213.565 C 265.439 214.976 265.000 220.391 265.000 225.599 L 265.000 235.067 268.441 237.098 L 271.882 239.128 272.411 266.314 C 272.702 281.266 273.030 295.001 273.141 296.835 C 273.260 298.792 272.755 300.573 271.921 301.144 C 270.593 302.054 254.674 301.535 253.045 300.528 C 252.652 300.285 252.741 297.029 253.243 293.293 C 253.746 289.557 254.009 257.645 253.828 222.379 L 253.500 158.257 261.264 157.659 C 272.868 156.764 273.581 157.248 274.579 166.678 C 275.034 170.980 275.427 175.400 275.453 176.500 C 275.497 178.353 276.279 178.521 286.101 178.782 C 294.222 178.999 296.973 178.738 297.860 177.668 C 298.591 176.788 299.245 169.483 299.632 157.886 L 300.245 139.500 297.199 136.637 C 292.404 132.128 285.432 131.004 263.500 131.205 C 253.050 131.300 241.986 131.538 238.914 131.734 "/></g>
<g fill="#808080" >
<path d="M 437.015 129.745 C 430.494 130.192 426.182 133.032 423.433 138.694 C 421.328 143.029 421.332 142.729 421.744 252.086 L 421.980 314.672 424.958 318.784 C 426.597 321.046 428.964 323.468 430.219 324.168 C 431.906 325.108 439.662 325.447 460.000 325.470 C 491.574 325.504 492.562 325.277 496.750 317.015 C 498.992 312.593 499.000 312.397 498.994 264.038 C 498.991 232.360 498.614 214.149 497.909 211.609 L 496.828 207.719 481.236 208.243 C 467.723 208.697 465.468 209.008 464.322 210.574 C 463.430 211.794 463.000 215.707 463.000 222.592 L 463.000 232.802 466.454 234.840 L 469.908 236.878 470.293 263.689 C 470.504 278.435 471.010 291.645 471.416 293.044 C 471.947 294.872 471.620 296.247 470.256 297.932 C 468.414 300.207 468.100 300.250 459.472 299.388 L 450.586 298.500 451.043 288.500 C 451.294 283.000 451.500 250.987 451.500 217.360 L 451.500 156.219 456.500 155.618 C 464.306 154.680 469.491 154.891 470.800 156.200 C 471.460 156.860 472.011 159.223 472.024 161.450 C 472.037 163.678 472.467 167.300 472.980 169.500 C 473.587 172.105 473.564 173.621 472.914 173.847 C 472.291 174.064 472.353 174.721 473.081 175.597 C 474.447 177.243 492.514 177.593 495.000 176.021 C 496.187 175.271 496.692 171.192 497.421 156.477 L 498.342 137.881 495.362 134.900 C 490.513 130.052 484.352 128.998 462.000 129.197 C 451.275 129.292 440.032 129.539 437.015 129.745 "/></g>
</svg>
